<svg width="16" height="16" viewBox="0 0 48 48" fill="none" xmlns="http://www.w3.org/2000/svg">
<path d="M21.7956 0.0532226C16.042 0.61627 10.7671 3.16875 6.73118 7.35407C4.83522 9.32474 3.53058 11.211 2.34795 13.679C-0.00791855 18.5869 -0.599232 23.9734 0.611553 29.3786C1.16532 31.8748 2.52628 35.0372 3.99049 37.2144C7.116 41.8877 11.8184 45.3973 17.0275 46.9551C18.4167 47.368 18.6138 47.4149 19.7964 47.6214C24.8742 48.5316 30.0364 47.7903 34.6168 45.5099C37.1885 44.2337 38.8686 43.0137 40.9711 40.9211C43.0078 38.8847 44.2937 37.1017 45.5514 34.5774C46.6495 32.3722 47.3629 30.1106 47.7852 27.5393C48.0293 26.0285 48.0762 22.5751 47.8697 21.0267C47.6257 19.103 46.9217 16.3441 46.5369 15.8092C45.9831 15.0209 44.716 15.1147 44.228 15.9687C43.9746 16.4004 43.9558 16.7757 44.1623 17.3294C44.4063 18.0238 44.8381 19.8819 45.007 20.9986C45.2135 22.303 45.2417 25.4185 45.0633 26.6572C44.3688 31.4994 42.2945 35.6754 38.8968 39.0443C35.6868 42.2255 31.6227 44.2525 27.0236 44.9656C25.381 45.219 22.4057 45.2002 20.7444 44.9187C16.164 44.1398 12.2783 42.1692 9.04012 38.9504C5.83013 35.7598 3.74645 31.6027 3.03312 26.9857C2.79847 25.4936 2.79847 22.4719 3.03312 20.9798C4.21575 13.3224 9.18091 7.07255 16.3236 4.23854C18.7733 3.27198 21.1761 2.83092 24.0201 2.83092C28.0372 2.83092 31.1064 3.66611 34.9922 5.82446C35.8745 6.31243 36.6066 6.22798 37.0665 5.58986C37.5358 4.93297 37.3481 4.01332 36.6629 3.56288C34.1944 1.9582 30.7498 0.700727 27.399 0.193984C26.2164 0.0156861 22.997 -0.0593869 21.7956 0.0532226Z" fill="url(#paint0_linear)"/>
<path d="M42.9046 6.2749C42.7826 6.3312 38.4557 11.3892 33.2934 17.5265L23.8981 28.6748L23.2317 28.0367C21.0917 25.9816 13.6299 19.0279 13.4234 18.8965C13.1043 18.6807 12.3534 18.6807 11.9873 18.8872C11.3773 19.2531 11.1332 20.1916 11.5087 20.7921C11.7902 21.2613 23.2129 31.9217 23.5602 32.0437C24.0013 32.1939 24.2266 32.1751 24.6583 31.9311C24.9399 31.781 27.4647 28.8343 34.8702 20.0508C40.2765 13.6227 44.7536 8.26433 44.8193 8.13296C45.1197 7.56991 44.8756 6.74411 44.3031 6.36874C43.9558 6.13414 43.2894 6.08722 42.9046 6.2749Z" fill="#159E12"/>
<defs>
<linearGradient id="paint0_linear" x1="48.1887" y1="48.1129" x2="34.0649" y2="-8.58415" gradientUnits="userSpaceOnUse">
<stop stop-color="#004BBC"/>
<stop offset="1" stop-color="#458FFF"/>
</linearGradient>
</defs>
</svg>
