<svg width="63" height="58" viewBox="0 0 63 58" fill="none" xmlns="http://www.w3.org/2000/svg">
<path d="M12.7326 0.0210636C11.7154 0.119501 10.7884 0.320478 9.94761 0.619892C9.34468 0.833173 8.31929 1.34177 7.76968 1.7027C5.57945 3.14235 4.00445 5.34489 3.3441 7.90017C2.96265 9.36852 2.91754 11.0625 3.21695 12.5472C3.865 15.7465 5.95269 18.4658 8.85659 19.889C9.63179 20.2664 10.1035 20.4468 10.8582 20.6437C13.2576 21.2754 15.7759 21.0375 18.0113 19.967C18.4789 19.7414 18.6101 19.6593 18.6757 19.5527C18.8029 19.3435 18.8234 19.1384 18.729 18.9293C18.6265 18.7037 18.4378 18.5642 18.1917 18.5437C18.0277 18.5273 17.9374 18.556 17.4822 18.7734C14.9474 19.9916 12.0066 19.9793 9.47183 18.7406C7.04371 17.5511 5.22671 15.3035 4.59918 12.7072C4.3941 11.8705 4.34488 11.4357 4.34488 10.4924C4.34488 9.50798 4.3982 9.08962 4.63199 8.17497C5.28414 5.6197 7.0355 3.47458 9.44312 2.27282C12.3306 0.833174 15.821 1.03415 18.5158 2.79782C21.633 4.8404 23.2203 8.53591 22.5271 12.133C22.3999 12.8056 22.4574 13.0476 22.7855 13.2363C23.0931 13.4086 23.4581 13.3142 23.6673 13.0066C23.7699 12.8507 23.9052 12.1084 23.9749 11.3127C24.098 9.92224 23.8683 8.2406 23.3802 6.90349C23.1628 6.31696 22.6296 5.25466 22.3015 4.75017C20.3451 1.76833 16.9777 -0.0363583 13.4503 0.000555751C13.1345 0.00465731 12.8105 0.0128604 12.7326 0.0210636Z" fill="url(#paint0_linear)"/>
<path d="M13.8897 3.98983C13.7379 4.05956 13.6026 4.20312 13.5452 4.35487C13.5124 4.4328 13.5001 5.49511 13.5001 7.63612L13.496 10.8025L11.6256 12.0535C10.592 12.7426 9.71431 13.3578 9.66509 13.4193C9.55025 13.5834 9.55025 13.973 9.6692 14.133C9.80455 14.3135 9.99322 14.4037 10.2393 14.4078H10.4608L12.5403 13.0174C13.6887 12.2504 14.6608 11.5695 14.71 11.508C14.792 11.3932 14.792 11.348 14.792 7.86991C14.792 4.37538 14.792 4.34667 14.7059 4.23593C14.6608 4.1744 14.5747 4.08417 14.5172 4.04315C14.3778 3.94062 14.0538 3.9119 13.8897 3.98983Z" fill="url(#paint1_linear)"/>
<path d="M30.611 10.0101C28.2474 10.2291 27.024 10.5327 25.1739 11.3801C22.4554 12.6159 20.0917 14.8051 18.6796 17.3897C17.5091 19.5294 16.9805 21.5632 16.9805 23.936C16.9805 27.5869 18.1283 30.3904 20.9903 33.6953C21.5643 34.3662 22.1155 34.9523 24.1167 37.0214C27.2808 40.3052 28.9119 42.5084 30.2335 45.2767C30.4902 45.8204 30.7319 46.2229 30.8602 46.3147C31.268 46.6325 31.8797 46.5901 32.2422 46.2088C32.3479 46.1029 32.582 45.7004 32.7632 45.312C34.1225 42.4166 35.6706 40.3687 39.4539 36.4353C40.3299 35.5314 41.2512 34.5639 41.5004 34.2956C44.7627 30.7365 46.0691 27.6928 46.0691 23.6676C46.0691 21.3655 45.616 19.5224 44.5588 17.5451C42.4368 13.5763 38.3665 10.8011 33.7147 10.1443C32.9596 10.0384 31.1472 9.96071 30.611 10.0101ZM32.363 16.4646C34.5907 16.7259 36.4408 17.7357 37.7473 19.3952C39.5823 21.7398 39.6729 25.0517 37.9663 27.5163C35.58 30.9624 30.4751 31.831 26.9561 29.3947C23.1576 26.7607 22.7423 21.6409 26.0726 18.5408C26.7824 17.884 27.4016 17.4744 28.2625 17.0931C29.5916 16.514 30.966 16.3022 32.363 16.4646Z" fill="url(#paint2_linear)"/>
<path d="M12.6004 37.8053C13.1215 38.0807 15.8929 39.5778 18.755 41.1314L23.9655 43.949L24.5999 43.8714C24.9548 43.8219 25.2871 43.7584 25.3399 43.7301C25.4154 43.6948 25.1813 43.3841 24.4715 42.5861C23.5729 41.5904 22.8479 40.8419 20.2653 38.229L19.3591 37.311L15.5078 37.3039L11.6565 37.2968L12.6004 37.8053Z" fill="url(#paint3_linear)"/>
<path d="M42.9881 38.5821C40.9114 40.6653 40.3903 41.2161 40.4507 41.2373C40.481 41.2444 42.0517 40.9972 43.9396 40.6865C45.8275 40.3758 48.9236 39.8603 50.8115 39.5495C52.6994 39.2388 54.2928 38.9705 54.3456 38.9564C54.6477 38.8575 53.6358 37.8971 52.8731 37.5581L52.3596 37.3321L48.3195 37.311L44.2718 37.2898L42.9881 38.5821Z" fill="url(#paint4_linear)"/>
<path d="M6.37796 43.4547C5.39626 45.4744 4.60334 47.141 4.61089 47.1551C4.626 47.1621 4.80723 47.141 5.01113 47.1056C5.22257 47.0703 5.87956 46.9574 6.48368 46.8585C7.0878 46.7596 8.53015 46.5266 9.69309 46.3289C13.4085 45.7145 13.8918 45.6368 15.47 45.3826C16.3234 45.2413 17.1993 45.093 17.4259 45.0577L17.8261 44.9801L17.3504 44.7188C16.7462 44.3869 15.9458 43.9561 12.6382 42.1695C9.08142 40.2487 8.51505 39.945 8.32626 39.8532C8.17523 39.7755 8.08461 39.9379 6.37796 43.4547Z" fill="url(#paint5_linear)"/>
<path d="M55.0027 41.7104C54.7157 41.7669 53.7944 41.9223 52.9638 42.0565C51.5969 42.2825 49.4372 42.6355 45.2234 43.3347C44.4154 43.4688 42.3236 43.8149 40.5792 44.1044L37.4075 44.627L37.1961 44.86C36.4409 45.7074 34.0622 49.3584 34.2057 49.4643C34.2359 49.4925 35.5272 50.1916 39.7863 52.4797C41.1758 53.2282 43.1467 54.2945 44.1662 54.8454C45.1857 55.3962 46.915 56.3354 48.0099 56.9215L49.996 57.9949L56.0901 57.9737C62.0181 57.9525 62.1842 57.9455 62.4334 57.8113C62.8563 57.5783 63.0073 57.3311 62.9998 56.8721C62.9922 56.4978 62.7808 56.0247 60.1075 50.5377C58.5142 47.2751 56.8906 43.9278 56.4903 43.1016C55.9919 42.0847 55.7201 41.6045 55.6446 41.6116C55.5842 41.6116 55.2972 41.661 55.0027 41.7104Z" fill="url(#paint6_linear)"/>
<path d="M16.3009 48.1014C13.3331 48.5957 9.51201 49.2242 7.80536 49.5067C6.0987 49.7891 4.33919 50.0787 3.87854 50.1563L3.04787 50.3046L1.55266 53.3836C-0.0784748 56.745 -0.161542 56.9709 0.132969 57.4088C0.344413 57.7124 0.691785 57.9031 1.15243 57.9525C1.36387 57.9737 10.607 57.9878 21.7002 57.9737L41.8629 57.9525L40.5414 57.2393C38.4496 56.1023 34.0621 53.7367 32.6122 52.9599C31.8873 52.5715 31.0189 52.0983 30.6866 51.9147C30.3543 51.7311 29.1687 51.0885 28.0435 50.4812C26.9259 49.8809 25.0909 48.8923 23.9657 48.285C22.8481 47.6777 21.8815 47.1904 21.8135 47.1904C21.7531 47.1975 19.2686 47.607 16.3009 48.1014Z" fill="url(#paint7_linear)"/>
<defs>
<linearGradient id="paint0_linear" x1="24.0901" y1="21.039" x2="17.9132" y2="-3.75328" gradientUnits="userSpaceOnUse">
<stop stop-color="#004BBC"/>
<stop offset="1" stop-color="#458FFF"/>
</linearGradient>
<linearGradient id="paint1_linear" x1="14.8125" y1="14.4324" x2="9.56254" y2="3.93242" gradientUnits="userSpaceOnUse">
<stop stop-color="#004BBC"/>
<stop offset="1" stop-color="#458FFF"/>
</linearGradient>
<linearGradient id="paint2_linear" x1="31.5248" y1="46.5269" x2="31.5248" y2="9.9949" gradientUnits="userSpaceOnUse">
<stop stop-color="#FFB800"/>
<stop offset="1" stop-color="#FFF500"/>
</linearGradient>
<linearGradient id="paint3_linear" x1="25.4073" y1="43.9647" x2="24.4122" y2="35.74" gradientUnits="userSpaceOnUse">
<stop stop-color="#004BBC"/>
<stop offset="1" stop-color="#458FFF"/>
</linearGradient>
<linearGradient id="paint4_linear" x1="54.4552" y1="41.2467" x2="54.1079" y2="36.3189" gradientUnits="userSpaceOnUse">
<stop stop-color="#004BBC"/>
<stop offset="1" stop-color="#458FFF"/>
</linearGradient>
<linearGradient id="paint5_linear" x1="17.8781" y1="47.1736" x2="16.6359" y2="38.1668" gradientUnits="userSpaceOnUse">
<stop stop-color="#004BBC"/>
<stop offset="1" stop-color="#458FFF"/>
</linearGradient>
<linearGradient id="paint6_linear" x1="63.1133" y1="58.0334" x2="60.2581" y2="37.8853" gradientUnits="userSpaceOnUse">
<stop stop-color="#004BBC"/>
<stop offset="1" stop-color="#458FFF"/>
</linearGradient>
<linearGradient id="paint7_linear" x1="42.0274" y1="58.0048" x2="41.1621" y2="44.5257" gradientUnits="userSpaceOnUse">
<stop stop-color="#004BBC"/>
<stop offset="1" stop-color="#458FFF"/>
</linearGradient>
</defs>
</svg>
