<svg width="48" height="48" viewBox="0 0 48 48" fill="none" xmlns="http://www.w3.org/2000/svg">
<path d="M22.2187 0.0652275C19.8937 0.290228 17.775 0.749604 15.8531 1.43398C14.475 1.92148 12.1312 3.08398 10.875 3.90898C5.86873 7.1996 2.26873 12.234 0.759359 18.0746C-0.112516 21.4309 -0.215641 25.3027 0.468734 28.6965C1.94998 36.009 6.72186 42.2246 13.3594 45.4777C15.1312 46.3402 16.2094 46.7527 17.9344 47.2027C23.4187 48.6465 29.175 48.1027 34.2844 45.6559C35.3531 45.1402 35.6531 44.9527 35.8031 44.709C36.0937 44.2309 36.1406 43.7621 35.925 43.284C35.6906 42.7684 35.2594 42.4496 34.6969 42.4027C34.3219 42.3652 34.1156 42.4309 33.075 42.9277C27.2812 45.7121 20.5594 45.684 14.7656 42.8527C9.21561 40.134 5.06248 34.9965 3.62811 29.0621C3.15936 27.1496 3.04686 26.1559 3.04686 23.9996C3.04686 21.7496 3.16873 20.7934 3.70311 18.7027C5.19373 12.8621 9.19686 7.95898 14.7 5.2121C21.3 1.92148 29.2781 2.38085 35.4375 6.4121C42.5625 11.0809 46.1906 19.5277 44.6062 27.7496C44.3156 29.2871 44.4469 29.8402 45.1969 30.2715C45.9 30.6652 46.7344 30.4496 47.2125 29.7465C47.4469 29.3902 47.7562 27.6934 47.9156 25.8746C48.1969 22.6965 47.6719 18.8527 46.5562 15.7965C46.0594 14.4559 44.8406 12.0277 44.0906 10.8746C39.6187 4.05898 31.9219 -0.0660225 23.8594 0.0183525C23.1375 0.0277275 22.3969 0.0464775 22.2187 0.0652275Z" fill="url(#paint0_linear)"/>
<path d="M24.8907 9.13124C24.5438 9.29062 24.2344 9.61874 24.1032 9.96562C24.0282 10.1437 24 12.5719 24 17.4656L23.9907 24.7031L19.7157 27.5625C17.3532 29.1375 15.3469 30.5437 15.2344 30.6844C14.9719 31.0594 14.9719 31.95 15.2438 32.3156C15.5532 32.7281 15.9844 32.9344 16.5469 32.9437H17.0532L21.8063 29.7656C24.4313 28.0125 26.6532 26.4562 26.7657 26.3156C26.9532 26.0531 26.9532 25.95 26.9532 18C26.9532 10.0125 26.9532 9.94687 26.7563 9.69374C26.6532 9.55312 26.4563 9.34687 26.325 9.25312C26.0063 9.01874 25.2657 8.95312 24.8907 9.13124Z" fill="url(#paint1_linear)"/>
<path d="M39.8907 27.1312C39.5063 27.3 39.1125 27.7781 39.0469 28.1531C39.0188 28.3219 39 31.2844 39.0188 34.7531C39.0469 40.9406 39.0469 41.0531 39.2438 41.3062C39.6094 41.8031 39.9094 41.9531 40.5 41.9531C41.0907 41.9531 41.3907 41.8031 41.7563 41.3062C41.9532 41.0531 41.9532 40.9687 41.9532 34.5C41.9532 28.0312 41.9532 27.9469 41.7563 27.6937C41.6532 27.5531 41.4563 27.3469 41.325 27.2531C41.0157 27.0187 40.2657 26.9531 39.8907 27.1312Z" fill="#E51C44"/>
<path d="M39.8906 45.1312C38.9437 45.5437 38.7187 46.8 39.4593 47.5406C40.0687 48.15 40.9312 48.15 41.5406 47.5406C42.7031 46.3781 41.3999 44.475 39.8906 45.1312Z" fill="#E51C44"/>
<defs>
<linearGradient id="paint0_linear" x1="48.1789" y1="48.1063" x2="34.0603" y2="-8.56186" gradientUnits="userSpaceOnUse">
<stop stop-color="#004BBC"/>
<stop offset="1" stop-color="#458FFF"/>
</linearGradient>
<linearGradient id="paint1_linear" x1="27" y1="33" x2="15" y2="9" gradientUnits="userSpaceOnUse">
<stop stop-color="#004BBC"/>
<stop offset="1" stop-color="#458FFF"/>
</linearGradient>
</defs>
</svg>
